<!-- Page to edit: https://editor.method.ac/ -->

<svg width="40" height="51" xmlns="http://www.w3.org/2000/svg" preserveAspectRatio="none">

 <g>
  <title>background</title>
  <rect fill="none" id="canvas_background" height="53" width="42" y="-1" x="-1"/>
 </g>
 <g>
  <title>Layer 1</title>
  <g stroke="null" id="svg_1">
   <path stroke="null" id="svg_2" fill="#c4bba3" d="m32.048896,18.700683c0.008946,0.03311 0.013604,0.067247 0.013604,0.101545l0,5.33088c0,0.139272 -0.074504,0.267902 -0.195316,0.337188l-4.474304,2.576042l0,5.105925c0,0.138956 -0.073852,0.267224 -0.194345,0.337188l-9.339729,5.37655c-0.021378,0.012147 -0.044699,0.019921 -0.06802,0.02818c-0.008746,0.002916 -0.017005,0.00826 -0.026237,0.010689c-0.065288,0.017193 -0.133915,0.017193 -0.199204,0c-0.010689,-0.002916 -0.020406,-0.008745 -0.03061,-0.012633c-0.021378,-0.007774 -0.043728,-0.014576 -0.064134,-0.026237l-9.337785,-5.37655c-0.120739,-0.069361 -0.195316,-0.197945 -0.195316,-0.337188l0,-15.99264c0,-0.034981 0.004859,-0.068992 0.013604,-0.102031c0.002915,-0.011175 0.009717,-0.021378 0.013604,-0.032553c0.007287,-0.020406 0.01409,-0.041298 0.024779,-0.060247c0.007287,-0.012633 0.017977,-0.022836 0.026722,-0.034496c0.011175,-0.015548 0.021378,-0.031581 0.034496,-0.045185c0.011175,-0.011175 0.025751,-0.019435 0.038383,-0.029152c0.014091,-0.011661 0.026722,-0.024294 0.042756,-0.033525l0.000486,0l4.669136,-2.688275c0.120314,-0.069233 0.268375,-0.069233 0.38869,0l4.669136,2.688275l0.000972,0c0.015547,0.009718 0.028665,0.021864 0.042756,0.033039c0.012632,0.009717 0.026722,0.018463 0.037897,0.029152c0.013604,0.014091 0.023321,0.030123 0.034982,0.045672c0.008259,0.01166 0.019435,0.021863 0.026236,0.034496c0.011176,0.019435 0.017492,0.03984 0.025265,0.060247c0.003887,0.011175 0.010689,0.021378 0.013604,0.033039c0.008945,0.03311 0.013519,0.067248 0.013604,0.101545l0,9.98884l3.890784,-2.24031l0,-5.106412c0,-0.034011 0.004859,-0.068507 0.013604,-0.101059c0.003401,-0.011661 0.009717,-0.021864 0.013604,-0.033039c0.007774,-0.020406 0.014576,-0.041298 0.025264,-0.060247c0.007288,-0.012633 0.017978,-0.022836 0.026237,-0.034497c0.011661,-0.015547 0.021378,-0.031581 0.034982,-0.045184c0.011175,-0.011175 0.025265,-0.019435 0.037897,-0.029152c0.014576,-0.011661 0.027208,-0.024294 0.042756,-0.033525l0.000486,0l4.669621,-2.688275c0.120289,-0.069333 0.268402,-0.069333 0.388691,0l4.669135,2.688275c0.01652,0.009718 0.029152,0.021864 0.043728,0.033039c0.012147,0.009717 0.026237,0.018463 0.037412,0.029152c0.013604,0.01409 0.023321,0.030123 0.034982,0.045671c0.008745,0.011661 0.019435,0.021864 0.026237,0.034497c0.011175,0.018948 0.017491,0.03984 0.025264,0.060247c0.004373,0.011175 0.010689,0.021378 0.013604,0.033039zm-0.764747,5.207471l0,-4.433006l-1.633954,0.940629l-2.257315,1.299681l0,4.433006l3.891755,-2.24031l-0.000486,0zm-4.669135,8.019155l0,-4.435921l-2.220391,1.2681l-6.340501,3.618702l0,4.477706l8.560892,-4.928586zm-17.899162,-15.094766l0,15.094766l8.559919,4.9281l0,-4.476734l-4.471876,-2.530856l-0.001457,-0.000972l-0.001944,-0.000972c-0.015061,-0.008745 -0.027694,-0.021378 -0.041783,-0.032067c-0.012147,-0.009717 -0.026237,-0.017491 -0.036926,-0.02818l-0.000972,-0.001457c-0.012632,-0.012146 -0.021378,-0.027208 -0.032066,-0.040813c-0.009718,-0.013118 -0.021378,-0.024293 -0.029152,-0.037897l-0.000486,-0.001458c-0.008745,-0.014576 -0.01409,-0.032066 -0.020406,-0.048586c-0.006316,-0.014576 -0.014576,-0.02818 -0.018462,-0.043728l0,-0.000485c-0.004859,-0.018463 -0.005831,-0.037898 -0.007774,-0.056846c-0.001944,-0.014576 -0.005831,-0.029152 -0.005831,-0.043728l0,-0.000972l0,-10.436805l-2.25683,-1.300168l-1.633954,-0.939657l0,-0.000485zm4.280445,-2.912258l-3.890299,2.239338l3.889327,2.239339l3.889812,-2.239824l-3.889812,-2.238853l0.000972,0zm2.02313,13.975339l2.25683,-1.299195l0,-9.763886l-1.633954,0.940629l-2.257316,1.299682l0,9.763886l1.63444,-0.941115zm11.984762,-11.332735l-3.889812,2.239338l3.889812,2.239339l3.889327,-2.239824l-3.889327,-2.238853zm-0.389175,5.152568l-2.257316,-1.299681l-1.633954,-0.940629l0,4.433006l2.25683,1.299195l1.63444,0.941114l0,-4.433006zm-8.950553,9.989813l5.70548,-3.25722l2.85201,-1.627638l-3.886897,-2.237881l-4.475277,2.576526l-4.078813,2.348172l3.883496,2.198041z"/>
  </g>
 </g>
</svg>